<?xml version="1.0" encoding="UTF-8" standalone="no"?>
<!-- Created with Inkscape (http://www.inkscape.org/) -->

<svg
   xmlns:dc="http://purl.org/dc/elements/1.1/"
   xmlns:cc="http://creativecommons.org/ns#"
   xmlns:rdf="http://www.w3.org/1999/02/22-rdf-syntax-ns#"
   xmlns:svg="http://www.w3.org/2000/svg"
   xmlns="http://www.w3.org/2000/svg"
   xmlns:sodipodi="http://sodipodi.sourceforge.net/DTD/sodipodi-0.dtd"
   xmlns:inkscape="http://www.inkscape.org/namespaces/inkscape"
   width="133.34"
   height="46.18"
   id="svg3748"
   version="1.1"
   inkscape:version="0.48.1 "
   sodipodi:docname="Neues Dokument 7">
  <defs
     id="defs3750" />
  <sodipodi:namedview
     id="base"
     pagecolor="#ffffff"
     bordercolor="#666666"
     borderopacity="1.0"
     inkscape:pageopacity="0.0"
     inkscape:pageshadow="2"
     inkscape:zoom="6.8066377"
     inkscape:cx="66.67"
     inkscape:cy="23.089995"
     inkscape:document-units="px"
     inkscape:current-layer="layer1"
     showgrid="false"
     fit-margin-top="0"
     fit-margin-left="0"
     fit-margin-right="0"
     fit-margin-bottom="0"
     inkscape:window-width="1024"
     inkscape:window-height="678"
     inkscape:window-x="-4"
     inkscape:window-y="-4"
     inkscape:window-maximized="1" />
  <metadata
     id="metadata3753">
    <rdf:RDF>
      <cc:Work
         rdf:about="">
        <dc:format>image/svg+xml</dc:format>
        <dc:type
           rdf:resource="http://purl.org/dc/dcmitype/StillImage" />
        <dc:title></dc:title>
      </cc:Work>
    </rdf:RDF>
  </metadata>
  <g
     inkscape:label="Ebene 1"
     inkscape:groupmode="layer"
     id="layer1"
     transform="translate(-282.55572,-564.47714)">
    <g
       id="g470"
       transform="matrix(1.25,0,0,-1.25,369.79316,565.55277)">
      <path
         inkscape:connector-curvature="0"
         d="m 0,0 11.311,0 0.553,-1.844 2.582,1.905 6.27,0 15.367,-35.345 -11.433,0 -2.398,6.331 -1.598,0 2.275,-6.147 -11.311,0 -1.783,6.27 -9.712,0 L 0,0 z"
         style="fill:#000000;fill-opacity:1;fill-rule:nonzero;stroke:none"
         id="path472" />
    </g>
    <g
       id="g474"
       transform="matrix(1.25,0,0,-1.25,372.2519,599.43839)">
      <path
         inkscape:connector-curvature="0"
         d="m 0,0 0,25.264 7.684,0 6.147,-18.871 1.66,0 2.028,-6.332 -1.352,0 1.721,-5.962 -7.008,0 L 9.159,0 0,0 z"
         style="fill:#dddedf;fill-opacity:1;fill-rule:nonzero;stroke:none"
         id="path476" />
    </g>
    <g
       id="g478"
       transform="matrix(1.25,0,0,-1.25,372.32865,599.39076)">
      <path
         inkscape:connector-curvature="0"
         d="m 0,0 0,25.165 7.622,0 6.098,-18.797 1.647,0 2.012,-6.307 -1.341,0 1.707,-5.939 -6.952,0 L 9.086,0 0,0 z"
         style="fill:none;stroke:#000000;stroke-width:0.154;stroke-linecap:butt;stroke-linejoin:miter;stroke-miterlimit:3.86400008;stroke-opacity:1;stroke-dasharray:none"
         id="path480" />
    </g>
    <g
       id="g482"
       transform="matrix(1.25,0,0,-1.25,386.23653,575.77226)">
      <path
         inkscape:connector-curvature="0"
         d="m 0,0 -1.229,3.565 3.38,2.705 3.996,0 13.093,-31.227 -6.638,0 L 3.135,0.061 0,0 z"
         style="fill:#ffffff;fill-opacity:1;fill-rule:nonzero;stroke:none"
         id="path484" />
    </g>
    <g
       id="g486"
       transform="matrix(1.25,0,0,-1.25,386.27953,575.79764)">
      <path
         inkscape:connector-curvature="0"
         d="m 0,0 -1.224,3.558 3.366,2.698 3.978,0 13.035,-31.159 -6.61,0 L 3.121,0.061 0,0 z"
         style="fill:#dddedf;fill-opacity:1;fill-rule:nonzero;stroke:none"
         id="path488" />
    </g>
    <g
       id="g490"
       transform="matrix(1.25,0,0,-1.25,377.7074,575.15751)">
      <path
         inkscape:connector-curvature="0"
         d="m 0,0 -0.307,-13.216 3.688,0 L 0,0 z"
         style="fill:#000000;fill-opacity:1;fill-rule:nonzero;stroke:none"
         id="path492" />
    </g>
    <g
       id="g494"
       transform="matrix(1.25,0,0,-1.25,377.77128,575.17577)">
      <path
         inkscape:connector-curvature="0"
         d="m 0,0 -0.296,-13.14 3.548,0 L 0,0 z"
         style="fill:none;stroke:#000000;stroke-width:0.154;stroke-linecap:butt;stroke-linejoin:miter;stroke-miterlimit:3.86400008;stroke-opacity:1;stroke-dasharray:none"
         id="path496" />
    </g>
    <g
       id="g498"
       transform="matrix(1.25,0,0,-1.25,391.07728,588.75789)">
      <path
         inkscape:connector-curvature="0"
         d="m 0,0 -2.52,8.483 0.553,0 L 1.291,0 0,0 z"
         style="fill:#ffffff;fill-opacity:1;fill-rule:nonzero;stroke:none"
         id="path500" />
    </g>
    <g
       id="g502"
       transform="matrix(1.25,0,0,-1.25,391.05603,588.71539)">
      <path
         inkscape:connector-curvature="0"
         d="m 0,0 -2.458,8.415 0.54,0 L 1.259,0 0,0 z"
         style="fill:#dddedf;fill-opacity:1;fill-rule:nonzero;stroke:none"
         id="path504" />
    </g>
    <path
       inkscape:connector-curvature="0"
       d="m 308.06328,581.58764 3.26125,3.34125 1.06125,-3.34125 -4.3225,0 z m 41.05125,9.27 -2.33,-23.45875 -10.0975,0 -4.35,39.6925 7.53375,0 1.865,-27.03125 2.95125,27.03125 7.92375,0 3.4175,-26.95375 0.9325,27.0325 7.845,0 -3.57375,-39.61625 -9.865,0 -2.2525,23.30375 z m -42.955,-11.6525 7.22375,0.0788 1.70875,-6.83625 -1.86375,-4.81625 -9.4775,0 -5.20375,5.1275 -5.205,12.89375 7.69,7.69 -1.78625,5.1275 -2.56375,0 0.6225,-4.4275 -7.6125,0 -3.2625,7.7675 2.175,5.825 12.195,0 6.05875,-5.28125 3.72875,-14.83625 -7.22375,-8.07875 0.93125,-3.4175 2.56375,0 -0.69875,3.18375 z m 12.58375,-11.72875 -9.16625,35.0325 2.71875,4.66125 12.66125,0 5.12625,-5.59375 4.195,-34.1775 -6.29125,0 -5.82625,30.99375 -2.95125,0 6.13625,-30.91625 -6.6025,0 z m -15.99125,-1.94125 12.4175,0.0775 0.9325,2.4075 0.9325,-2.48125 31.7625,0 0.395,1.705 0.31125,-1.70875 14.1375,0 3.72875,43.8025 -12.51375,0 -0.53625,-0.53625 -0.54375,0.54375 -10.9525,0 -0.46625,-0.46625 -0.54375,0.54375 -12.27375,0 0,-3.41875 -3.5725,3.57375 -14.75875,0 -3.34,-5.205 -6.37,5.205 -14.37,0 -3.57375,-8.23375 4.50625,-9.555 7.06875,0 -4.73875,-5.515 6.21375,-15.4575 6.1475,-5.28125 z"
       style="fill:#000000;fill-opacity:1;fill-rule:nonzero;stroke:none"
       id="path508" />
  </g>
</svg>
